<svg id="Layer_1" data-name="Layer 1" xmlns="http://www.w3.org/2000/svg" xmlns:xlink="http://www.w3.org/1999/xlink" viewBox="0 0 826.31 534.19"><defs><style>.cls-1{fill:none;}.cls-15,.cls-2{fill:#fff;}.cls-3{fill:#2591aa;}.cls-4{fill:#ce2757;}.cls-5{fill:#231f20;}.cls-6{clip-path:url(#clip-path);}.cls-7{clip-path:url(#clip-path-2);}.cls-8{clip-path:url(#clip-path-3);}.cls-9{clip-path:url(#clip-path-4);}.cls-10{clip-path:url(#clip-path-5);}.cls-11{clip-path:url(#clip-path-6);}.cls-12{clip-path:url(#clip-path-7);}.cls-13{clip-path:url(#clip-path-8);}.cls-14{clip-path:url(#clip-path-9);}.cls-15{stroke:#231f20;stroke-miterlimit:10;}</style><clipPath id="clip-path" transform="translate(-88.43 -207.36)"><path class="cls-1" d="M327.19,618.32q-9.44,5.76-24,5.76a33.37,33.37,0,0,1-6.08-.48q-18.09-3-30.4-14.72-14.88-14.24-15.84-38.07-1.11-23.52,11-40.23t35.84-22.32a43.7,43.7,0,0,1,9.75-1,50.08,50.08,0,0,1,20.8,4.32q11.52,6.24,13.6,18.4a37.23,37.23,0,0,0-14.24-11.36A32.86,32.86,0,0,0,312,515.14l-3.52.16q-19.83.65-31.19,17.44Q267.2,548.09,267.84,570q.8,23,13.44,35.67,10.71,10.89,25.11,10.4l3.36-.16a40.82,40.82,0,0,0,16.64-4.64,47.27,47.27,0,0,0,13.12-9.6A26.8,26.8,0,0,1,327.19,618.32Z"/></clipPath><clipPath id="clip-path-2" transform="translate(-88.43 -207.36)"><path class="cls-1" d="M399,543.77a13.51,13.51,0,0,0-6.88-1.75q-5.76,0-11.2,4.63-12.17,10.41-14.88,32.16l.16-1.6a257.65,257.65,0,0,0-1.92,28q0,14.88,3.52,17.12H352.47q-2.73-2.4-2.72-16.16a261.44,261.44,0,0,1,2.32-30.95q2.31-18.8,2.32-22.32,0-11.19-3.84-14.24h16q2.08,1.29,2.4,8.8a46,46,0,0,1,5.6-5.6,18.92,18.92,0,0,1,11.68-4,19.79,19.79,0,0,1,4.32.47Q397.41,540.1,399,543.77Z"/></clipPath><clipPath id="clip-path-3" transform="translate(-88.43 -207.36)"><path class="cls-1" d="M464.6,612.48q6.4-2.64,9.44-6.64A32.73,32.73,0,0,1,462.36,618a34.4,34.4,0,0,1-18.24,5q-14.72,0-24-9.28-10.87-11-10.88-32.31,0-17.45,9.44-30.4,10.71-14.87,28.79-15,15-.33,23,5.91,7,5.45,7,13.76,0,10.25-8.8,16a145.53,145.53,0,0,1-18.4,9.2q-12.32,5.36-16.31,8.07-7.05,4.65-7,10.24a13.17,13.17,0,0,0,1.44,5.6,17.2,17.2,0,0,0,9.44,9c3.19,1.28,7.73,1.81,13.59,1.6A36.46,36.46,0,0,0,464.6,612.48Zm-41.27-30a30.58,30.58,0,0,0,.8,7.19,65.7,65.7,0,0,1,21.75-14.39q18.89-7.53,18.88-20.48a10.74,10.74,0,0,0-3.44-8.08,12.57,12.57,0,0,0-9-3.28,24.07,24.07,0,0,0-12.63,3.68,28.45,28.45,0,0,0-10.72,11.68A50.29,50.29,0,0,0,423.33,582.49Z"/></clipPath><clipPath id="clip-path-4" transform="translate(-88.43 -207.36)"><path class="cls-2" d="M505.71,622.8a21.42,21.42,0,0,1-12.64-6.72,18.7,18.7,0,0,1-5.28-13.28q0-8.16,6.39-16,5.58-6.87,20.58-11.35l23.61-7q11.18-4.47,11.17-12.48,0-6.72-7-10.24A28.6,28.6,0,0,0,529.61,543a62.39,62.39,0,0,0-31.1,8.48q1.75-2.55,9-8.48a48.5,48.5,0,0,1,23.83-6.87q19.2-1,27.36,5.59,6.55,5.13,6.08,15.2-.16,1.61-2.4,20.32a224.06,224.06,0,0,0-2.08,26.39q0,13.92,3.84,18.72h-15q-2.88-4.16-2.4-22.56.48-14.07,2.4-30.07-4,4.15-17.27,8.64-15.84,5.43-20.64,8.16Q501.07,592.4,501.07,601q0,7.05,4.24,11t11.12,3.92q10.56,0,21.75-8.32c.53-.43,1.39-1,2.56-1.76q-12.32,17.45-30.07,17.44A26.93,26.93,0,0,1,505.71,622.8Z"/></clipPath><clipPath id="clip-path-5" transform="translate(-88.43 -207.36)"><path class="cls-2" d="M602.33,603q-.48,14.88,9.12,14.88a16.84,16.84,0,0,0,6.88-1.76,21.25,21.25,0,0,1-15.52,6.56q-5.91,0-10.24-5.12-5.12-5.76-4.8-14.72.65-13.59,2.4-27.83,1-7.85,1.44-25.6l.16-3.52a44.89,44.89,0,0,1-12.47-4.16,49.83,49.83,0,0,1-5.28-2.87,22.79,22.79,0,0,0,8.79,1.43,36.27,36.27,0,0,0,8.32-1l.8-.16q.17-27-3.36-29.91h15.68q1.61,12.16,2.08,26.72a47.75,47.75,0,0,1,5.44-.32,29.27,29.27,0,0,1,17.12,5.11,61.69,61.69,0,0,0-14.56,1,43,43,0,0,0-7.84,3.2l-.16,4.64a160.88,160.88,0,0,1-1.44,21.12Q603,586.49,602.33,603Z"/></clipPath><clipPath id="clip-path-6" transform="translate(-88.43 -207.36)"><path class="cls-2" d="M641.12,524.26a8.89,8.89,0,0,1-2.64-6.4,9.07,9.07,0,0,1,2.64-6.56,9.08,9.08,0,0,1,13,0,9.07,9.07,0,0,1,2.64,6.56,8.89,8.89,0,0,1-2.64,6.4,9.08,9.08,0,0,1-13,0Zm-2.64,81.9q0,13.76,2.72,16.16h15.36Q653,620.07,653,605.2q0-17.6,4.32-46.39,1.92-18.87-18.08-20.48,4.15,2.73,4.16,13.6a67,67,0,0,1-.48,8Q638.48,589.36,638.48,606.16Z"/></clipPath><clipPath id="clip-path-7" transform="translate(-88.43 -207.36)"><path class="cls-2" d="M681.35,613.84q-13.76-11.36-13.75-32.15,0-19.52,12-32.32,12.79-13.59,34.4-13.59,12.79,0,23.67,9.59,13.59,11.85,13.6,32.16T736.7,611.12Q723.91,623,708.38,623,692.71,623,681.35,613.84Zm46.55-7.52q9.44-10.71,9.44-29,0-14.08-7.44-24t-17.52-9.92a27.94,27.94,0,0,0-20.63,8.8q-10.08,10.56-10.08,29.59,0,14.56,7.68,24.16t20.32,9.6Q719.9,615.6,727.9,606.32Z"/></clipPath><clipPath id="clip-path-8" transform="translate(-88.43 -207.36)"><path class="cls-2" d="M845.32,622.32H831.4q-4.32-4-3.52-22.4l2.88-32.63q1.92-21.12-22.56-21.12-10.55,0-19.67,8.48t-10.4,19.2h.16a260.4,260.4,0,0,0-2.56,31.83q0,14.4,3.68,16.64H763.89q-2.55-2.4-2.56-16.16a261.44,261.44,0,0,1,2.32-30.95q2.33-18.8,2.32-22.48,0-11.19-4-14.24h15.68q3.36,2.57,2.72,16.48,10.88-19.2,32.31-19.19,13.76,0,21.76,6.39,9.27,7.37,9.28,22.4a34.56,34.56,0,0,1-.32,4.48q-1.44,11.84-1.92,23.52Q840.52,617.68,845.32,622.32Z"/></clipPath><clipPath id="clip-path-9" transform="translate(-88.43 -207.36)"><path class="cls-2" d="M914.1,601.36Q913,612.57,901.94,619q-10.07,5.6-23.51,5.12c-3.42-.32-5.92-.64-7.52-1q-17.76-3.84-17.76-17a17.87,17.87,0,0,1,1.12-6.24q0,14.08,22.24,16.64c1.28.11,2.45.16,3.52.16,5.54,0,10.08-1.36,13.59-4.08a13.77,13.77,0,0,0,5.76-10.16q.64-7.83-10.55-15.19l-21.12-13.12q-10.4-7.84-10.56-16.64-.31-10.39,9.6-16.16A41.5,41.5,0,0,1,892,537.21q19.5,2.73,19.51,14.08a10,10,0,0,1-.48,3.2Q907.7,542,886,543.13q-15,.81-16,10.24-.48,6.55,6.88,12.48,4.32,3.36,15.51,9t14.4,8.48Q915.07,590.64,914.1,601.36Z"/></clipPath></defs><title>MyLogo_navbar</title><path class="cls-3" d="M6.13,114.48H390.07a6.13,6.13,0,0,1,6.13,6.13V482.89a45.81,45.81,0,0,1-45.81,45.81H19a19,19,0,0,1-19-19V120.61A6.13,6.13,0,0,1,6.13,114.48Z"/><path class="cls-4" d="M41.74,138h396.2a0,0,0,0,1,0,0V494.51a39.68,39.68,0,0,1-39.68,39.68H54.63a12.89,12.89,0,0,1-12.89-12.89V138A0,0,0,0,1,41.74,138Z"/><path class="cls-5" d="M23.51,138h396.2a0,0,0,0,1,0,0V494.51A39.68,39.68,0,0,1,380,534.19H36.4a12.89,12.89,0,0,1-12.89-12.89V138A0,0,0,0,1,23.51,138Z"/><g class="cls-6"><rect class="cls-2" x="161.71" y="299.94" width="91.77" height="116.78"/></g><g class="cls-7"><rect class="cls-2" x="261.31" y="330.5" width="49.27" height="84.46"/></g><g class="cls-8"><rect class="cls-2" x="334.9" y="336.09" width="41.43" height="46.23"/><rect class="cls-2" x="320.82" y="328.36" width="68.31" height="87.23"/></g><path class="cls-2" d="M505.71,622.8a21.42,21.42,0,0,1-12.64-6.72,18.7,18.7,0,0,1-5.28-13.28q0-8.16,6.39-16,5.58-6.87,20.58-11.35l23.61-7q11.18-4.47,11.17-12.48,0-6.72-7-10.24A28.6,28.6,0,0,0,529.61,543a62.39,62.39,0,0,0-31.1,8.48q1.75-2.55,9-8.48a48.5,48.5,0,0,1,23.83-6.87q19.2-1,27.36,5.59,6.55,5.13,6.08,15.2-.16,1.61-2.4,20.32a224.06,224.06,0,0,0-2.08,26.39q0,13.92,3.84,18.72h-15q-2.88-4.16-2.4-22.56.48-14.07,2.4-30.07-4,4.15-17.27,8.64-15.84,5.43-20.64,8.16Q501.07,592.4,501.07,601q0,7.05,4.24,11t11.12,3.92q10.56,0,21.75-8.32c.53-.43,1.39-1,2.56-1.76q-12.32,17.45-30.07,17.44A26.93,26.93,0,0,1,505.71,622.8Z" transform="translate(-88.43 -207.36)"/><g class="cls-9"><rect class="cls-2" x="399.36" y="328.09" width="19.32" height="87.82"/><rect class="cls-2" x="418.68" y="328.09" height="87.82"/><rect class="cls-2" x="418.68" y="328.09" height="87.82"/><rect class="cls-2" x="418.69" y="328.09" height="87.82"/><rect class="cls-2" x="418.69" y="328.09" height="87.82"/><rect class="cls-2" x="418.7" y="328.09" height="87.82"/><rect class="cls-2" x="418.7" y="328.09" height="87.82"/><rect class="cls-2" x="418.71" y="328.09" height="87.82"/><rect class="cls-2" x="418.71" y="328.09" height="87.82"/><rect class="cls-2" x="418.71" y="328.09" height="87.82"/><rect class="cls-2" x="418.72" y="328.09" height="87.82"/><rect class="cls-2" x="418.72" y="328.09" height="87.82"/><rect class="cls-2" x="418.73" y="328.09" height="87.82"/><rect class="cls-2" x="418.73" y="328.09" height="87.82"/><rect class="cls-2" x="418.74" y="328.09" height="87.82"/><rect class="cls-2" x="418.74" y="328.09" height="87.82"/><rect class="cls-2" x="418.74" y="328.09" height="87.82"/><rect class="cls-2" x="418.75" y="328.09" height="87.82"/><rect class="cls-2" x="418.75" y="328.09" height="87.82"/><rect class="cls-2" x="418.76" y="328.09" height="87.82"/><rect class="cls-2" x="418.76" y="328.09" height="87.82"/><rect class="cls-2" x="418.77" y="328.09" height="87.82"/><rect class="cls-2" x="418.77" y="328.09" height="87.82"/><rect class="cls-2" x="418.78" y="328.09" height="87.82"/><rect class="cls-2" x="418.78" y="328.09" height="87.82"/><rect class="cls-2" x="418.78" y="328.09" height="87.82"/><rect class="cls-2" x="418.79" y="328.09" height="87.82"/><rect class="cls-2" x="418.79" y="328.09" height="87.82"/><rect class="cls-2" x="418.8" y="328.09" height="87.82"/><rect class="cls-2" x="418.8" y="328.09" height="87.82"/><rect class="cls-2" x="418.81" y="328.09" height="87.82"/><rect class="cls-2" x="418.81" y="328.09" height="87.82"/><rect class="cls-2" x="418.81" y="328.09" height="87.82"/><rect class="cls-2" x="418.82" y="328.09" height="87.82"/><rect class="cls-2" x="418.82" y="328.09" height="87.82"/><rect class="cls-2" x="418.83" y="328.09" height="87.82"/><rect class="cls-2" x="418.83" y="328.09" height="87.82"/><rect class="cls-2" x="418.84" y="328.09" height="87.82"/><rect class="cls-2" x="418.84" y="328.09" height="87.82"/><rect class="cls-2" x="418.85" y="328.09" height="87.82"/><rect class="cls-2" x="418.85" y="328.09" height="87.82"/><rect class="cls-2" x="418.85" y="328.09" height="87.82"/><rect class="cls-2" x="418.86" y="328.09" height="87.82"/><rect class="cls-2" x="418.86" y="328.09" height="87.82"/><rect class="cls-2" x="418.87" y="328.09" height="87.82"/><rect class="cls-2" x="418.87" y="328.09" height="87.82"/><rect class="cls-2" x="418.88" y="328.09" height="87.82"/><rect class="cls-2" x="418.88" y="328.09" height="87.82"/><rect class="cls-2" x="418.89" y="328.09" height="87.82"/><rect class="cls-2" x="418.89" y="328.09" height="87.82"/><rect class="cls-2" x="418.89" y="328.09" height="87.82"/><rect class="cls-2" x="418.9" y="328.09" height="87.82"/><rect class="cls-2" x="418.9" y="328.09" height="87.82"/><rect class="cls-2" x="418.91" y="328.09" height="87.82"/><rect class="cls-2" x="418.91" y="328.09" height="87.82"/><rect class="cls-2" x="418.92" y="328.09" height="87.82"/><rect class="cls-2" x="418.92" y="328.09" height="87.82"/><rect class="cls-2" x="418.92" y="328.09" height="87.82"/><rect class="cls-2" x="418.93" y="328.09" height="87.82"/><rect class="cls-2" x="418.93" y="328.09" height="87.82"/><rect class="cls-2" x="418.94" y="328.09" height="87.82"/><rect class="cls-2" x="418.94" y="328.09" height="87.82"/><rect class="cls-2" x="418.95" y="328.09" height="87.82"/><rect class="cls-2" x="418.95" y="328.09" height="87.82"/><rect class="cls-2" x="418.96" y="328.09" height="87.82"/><rect class="cls-2" x="418.96" y="328.09" height="87.82"/><rect class="cls-2" x="418.96" y="328.09" height="87.82"/><rect class="cls-2" x="418.97" y="328.09" height="87.82"/><rect class="cls-2" x="418.97" y="328.09" height="87.82"/><rect class="cls-2" x="418.98" y="328.09" height="87.82"/><rect class="cls-2" x="418.98" y="328.09" height="87.82"/><rect class="cls-2" x="418.99" y="328.09" height="87.82"/><rect class="cls-2" x="418.99" y="328.09" height="87.82"/><rect class="cls-2" x="419" y="328.09" height="87.82"/><rect class="cls-2" x="419" y="328.09" height="87.82"/><rect class="cls-2" x="419" y="328.09" height="87.82"/><rect class="cls-2" x="419.01" y="328.09" height="87.82"/><rect class="cls-2" x="419.01" y="328.09" height="87.82"/><rect class="cls-2" x="419.02" y="328.09" height="87.82"/><rect class="cls-2" x="419.02" y="328.09" height="87.82"/><rect class="cls-2" x="419.03" y="328.09" height="87.82"/><rect class="cls-2" x="419.03" y="328.09" height="87.82"/><rect class="cls-2" x="419.03" y="328.09" height="87.82"/><rect class="cls-2" x="419.04" y="328.09" height="87.82"/><rect class="cls-2" x="419.04" y="328.09" height="87.82"/><rect class="cls-2" x="419.05" y="328.09" height="87.82"/><rect class="cls-2" x="419.05" y="328.09" height="87.82"/><rect class="cls-2" x="419.06" y="328.09" height="87.82"/><rect class="cls-2" x="419.06" y="328.09" height="87.82"/><rect class="cls-2" x="419.07" y="328.09" height="87.82"/><rect class="cls-2" x="419.07" y="328.09" height="87.82"/><rect class="cls-2" x="419.07" y="328.09" height="87.82"/><rect class="cls-2" x="419.08" y="328.09" height="87.82"/><rect class="cls-2" x="419.08" y="328.09" height="87.82"/><rect class="cls-2" x="419.09" y="328.09" height="87.82"/><rect class="cls-2" x="419.09" y="328.09" height="87.82"/><rect class="cls-2" x="419.1" y="328.09" height="87.82"/><rect class="cls-2" x="419.1" y="328.09" height="87.82"/><rect class="cls-2" x="419.11" y="328.09" height="87.82"/><rect class="cls-2" x="419.11" y="328.09" height="87.82"/><rect class="cls-2" x="419.11" y="328.09" height="87.82"/><rect class="cls-2" x="419.12" y="328.09" height="87.82"/><rect class="cls-2" x="419.12" y="328.09" height="87.82"/><rect class="cls-2" x="419.13" y="328.09" height="87.82"/><rect class="cls-2" x="419.13" y="328.09" height="87.82"/><rect class="cls-2" x="419.14" y="328.09" height="87.82"/><rect class="cls-2" x="419.14" y="328.09" height="87.82"/><rect class="cls-2" x="419.15" y="328.09" height="87.82"/><rect class="cls-2" x="419.15" y="328.09" height="87.82"/><rect class="cls-2" x="419.15" y="328.09" height="87.82"/><rect class="cls-2" x="419.16" y="328.09" height="87.82"/><rect class="cls-2" x="419.16" y="328.09" height="87.82"/><rect class="cls-2" x="419.17" y="328.09" height="87.82"/><rect class="cls-2" x="419.17" y="328.09" height="87.82"/><rect class="cls-2" x="419.18" y="328.09" height="87.82"/><rect class="cls-2" x="419.18" y="328.09" height="87.82"/><rect class="cls-2" x="419.19" y="328.09" height="87.82"/><rect class="cls-2" x="419.19" y="328.09" height="87.82"/><rect class="cls-2" x="419.19" y="328.09" height="87.82"/><rect class="cls-2" x="419.2" y="328.09" height="87.82"/><rect class="cls-2" x="419.2" y="328.09" height="87.82"/><rect class="cls-2" x="419.21" y="328.09" height="87.82"/><rect class="cls-2" x="419.21" y="328.09" height="87.82"/><rect class="cls-2" x="419.22" y="328.09" height="87.82"/><rect class="cls-2" x="419.22" y="328.09" height="87.82"/><rect class="cls-2" x="419.23" y="328.09" height="87.82"/><rect class="cls-2" x="419.23" y="328.09" height="87.82"/><rect class="cls-2" x="419.23" y="328.09" height="87.82"/><rect class="cls-2" x="419.24" y="328.09" height="87.82"/><rect class="cls-2" x="419.24" y="328.09" height="87.82"/><rect class="cls-2" x="419.25" y="328.09" height="87.82"/><rect class="cls-2" x="419.25" y="328.09" height="87.82"/><rect class="cls-2" x="419.26" y="328.09" height="87.82"/><rect class="cls-2" x="419.26" y="328.09" height="87.82"/><rect class="cls-2" x="419.27" y="328.09" height="87.82"/><rect class="cls-2" x="419.27" y="328.09" height="87.82"/><rect class="cls-2" x="419.27" y="328.09" height="87.82"/><rect class="cls-2" x="419.28" y="328.09" height="87.82"/><rect class="cls-2" x="419.28" y="328.09" height="87.82"/><rect class="cls-2" x="419.29" y="328.09" height="87.82"/><rect class="cls-2" x="419.29" y="328.09" height="87.82"/><rect class="cls-2" x="419.3" y="328.09" height="87.82"/><rect class="cls-2" x="419.3" y="328.09" height="87.82"/><rect class="cls-2" x="419.31" y="328.09" height="87.82"/><rect class="cls-2" x="419.31" y="328.09" height="87.82"/><rect class="cls-2" x="419.31" y="328.09" height="87.82"/><rect class="cls-2" x="419.32" y="328.09" height="87.82"/><rect class="cls-2" x="419.32" y="328.09" height="87.82"/><rect class="cls-2" x="419.33" y="328.09" height="87.82"/><rect class="cls-2" x="419.33" y="328.09" height="87.82"/><rect class="cls-2" x="419.34" y="328.09" height="87.82"/><rect class="cls-2" x="419.34" y="328.09" height="87.82"/><rect class="cls-2" x="419.34" y="328.09" height="87.82"/><rect class="cls-2" x="419.35" y="328.09" height="87.82"/><rect class="cls-2" x="419.35" y="328.09" height="87.82"/><rect class="cls-2" x="419.36" y="328.09" height="87.82"/><rect class="cls-2" x="419.36" y="328.09" height="87.82"/><rect class="cls-2" x="419.37" y="328.09" height="87.82"/><rect class="cls-2" x="419.37" y="328.09" height="87.82"/><rect class="cls-2" x="419.38" y="328.09" height="87.82"/><rect class="cls-2" x="419.38" y="328.09" height="87.82"/><rect class="cls-2" x="419.38" y="328.09" height="87.82"/><rect class="cls-2" x="419.39" y="328.09" height="87.82"/><rect class="cls-2" x="419.39" y="328.09" height="87.82"/><rect class="cls-2" x="419.4" y="328.09" height="87.82"/><rect class="cls-2" x="419.4" y="328.09" height="87.82"/><rect class="cls-2" x="419.41" y="328.09" height="87.82"/><rect class="cls-2" x="419.41" y="328.09" height="87.82"/><rect class="cls-2" x="419.42" y="328.09" height="87.82"/><rect class="cls-2" x="419.42" y="328.09" height="87.82"/><rect class="cls-2" x="419.42" y="328.09" height="87.82"/><rect class="cls-2" x="419.43" y="328.09" height="87.82"/><rect class="cls-2" x="419.43" y="328.09" height="87.82"/><rect class="cls-2" x="419.44" y="328.09" height="87.82"/><rect class="cls-2" x="419.44" y="328.09" height="87.82"/><rect class="cls-2" x="419.45" y="328.09" height="87.82"/><rect class="cls-2" x="419.45" y="328.09" height="87.82"/><rect class="cls-2" x="419.46" y="328.09" height="87.82"/><rect class="cls-2" x="419.46" y="328.09" height="87.82"/><rect class="cls-2" x="419.46" y="328.09" height="87.82"/><rect class="cls-2" x="419.47" y="328.09" height="87.82"/><rect class="cls-2" x="419.47" y="328.09" height="87.82"/><rect class="cls-2" x="419.48" y="328.09" height="87.82"/><rect class="cls-2" x="419.48" y="328.09" height="87.82"/><rect class="cls-2" x="419.49" y="328.09" height="87.82"/><rect class="cls-2" x="419.49" y="328.09" height="87.82"/><rect class="cls-2" x="419.5" y="328.09" height="87.82"/><rect class="cls-2" x="419.5" y="328.09" height="87.82"/><rect class="cls-2" x="419.5" y="328.09" height="87.82"/><rect class="cls-2" x="419.51" y="328.09" height="87.82"/><rect class="cls-2" x="419.51" y="328.09" height="87.82"/><rect class="cls-2" x="419.52" y="328.09" height="87.82"/><rect class="cls-2" x="419.52" y="328.09" height="87.82"/><rect class="cls-2" x="419.53" y="328.09" height="87.82"/><rect class="cls-2" x="419.53" y="328.09" height="87.82"/><rect class="cls-2" x="419.54" y="328.09" height="87.82"/><rect class="cls-2" x="419.54" y="328.09" height="87.82"/><rect class="cls-2" x="419.54" y="328.09" height="87.82"/><rect class="cls-2" x="419.55" y="328.09" height="87.82"/><rect class="cls-2" x="419.55" y="328.09" height="87.82"/><rect class="cls-2" x="419.56" y="328.09" height="87.82"/><rect class="cls-2" x="419.56" y="328.09" height="87.82"/><rect class="cls-2" x="419.57" y="328.09" height="87.82"/><rect class="cls-2" x="419.57" y="328.09" height="87.82"/><rect class="cls-2" x="419.58" y="328.09" height="87.82"/><rect class="cls-2" x="419.58" y="328.09" height="87.82"/><rect class="cls-2" x="419.58" y="328.09" height="87.82"/><rect class="cls-2" x="419.59" y="328.09" height="87.82"/><rect class="cls-2" x="419.59" y="328.09" height="87.82"/><rect class="cls-2" x="419.6" y="328.09" height="87.82"/><rect class="cls-2" x="419.6" y="328.09" height="87.82"/><rect class="cls-2" x="419.61" y="328.09" height="87.82"/><rect class="cls-2" x="419.61" y="328.09" height="87.82"/><rect class="cls-2" x="419.62" y="328.09" height="87.82"/><rect class="cls-2" x="419.62" y="328.09" height="87.82"/><rect class="cls-2" x="419.62" y="328.09" height="87.82"/><rect class="cls-2" x="419.63" y="328.09" height="87.82"/><rect class="cls-2" x="419.63" y="328.09" height="87.82"/><rect class="cls-2" x="419.64" y="328.09" height="87.82"/><rect class="cls-2" x="419.64" y="328.09" height="87.82"/><rect class="cls-2" x="419.65" y="328.09" height="87.82"/><rect class="cls-2" x="419.65" y="328.09" height="87.82"/><rect class="cls-2" x="419.65" y="328.09" height="87.82"/><rect class="cls-2" x="419.66" y="328.09" height="87.82"/><rect class="cls-2" x="419.66" y="328.09" height="87.82"/><rect class="cls-2" x="419.67" y="328.09" height="87.82"/><rect class="cls-2" x="419.67" y="328.09" height="87.82"/><rect class="cls-2" x="419.68" y="328.09" height="87.82"/><rect class="cls-2" x="419.68" y="328.09" height="87.82"/><rect class="cls-2" x="419.69" y="328.09" height="87.82"/><rect class="cls-2" x="419.69" y="328.09" height="87.82"/><rect class="cls-2" x="419.69" y="328.09" height="87.82"/><rect class="cls-2" x="419.7" y="328.09" height="87.82"/><rect class="cls-2" x="419.7" y="328.09" height="87.82"/><rect class="cls-2" x="419.71" y="328.09" height="87.82"/><rect class="cls-2" x="419.71" y="328.09" height="87.82"/><rect class="cls-2" x="419.72" y="328.09" height="87.82"/><rect class="cls-2" x="419.72" y="328.09" height="87.82"/><rect class="cls-2" x="419.73" y="328.09" height="87.82"/><rect class="cls-2" x="419.73" y="328.09" height="87.82"/><rect class="cls-2" x="419.73" y="328.09" height="87.82"/><rect class="cls-2" x="419.74" y="328.09" height="87.82"/><rect class="cls-2" x="419.74" y="328.09" height="87.82"/><rect class="cls-2" x="419.75" y="328.09" height="87.82"/><rect class="cls-2" x="419.75" y="328.09" height="87.82"/><rect class="cls-2" x="419.76" y="328.09" height="87.82"/><rect class="cls-2" x="419.76" y="328.09" height="87.82"/><rect class="cls-2" x="419.77" y="328.09" height="87.82"/><rect class="cls-2" x="419.77" y="328.09" height="87.82"/><rect class="cls-2" x="419.77" y="328.09" height="87.82"/><rect class="cls-2" x="419.78" y="328.09" height="87.82"/><rect class="cls-2" x="419.78" y="328.09" height="87.82"/><rect class="cls-2" x="419.79" y="328.09" height="87.82"/><rect class="cls-2" x="419.79" y="328.09" height="87.82"/><rect class="cls-2" x="419.8" y="328.09" height="87.82"/><rect class="cls-2" x="419.8" y="328.09" height="87.82"/><rect class="cls-2" x="419.81" y="328.09" width="56.82" height="87.82"/></g><path class="cls-2" d="M602.33,603q-.48,14.88,9.12,14.88a16.84,16.84,0,0,0,6.88-1.76,21.25,21.25,0,0,1-15.52,6.56q-5.91,0-10.24-5.12-5.12-5.76-4.8-14.72.65-13.59,2.4-27.83,1-7.85,1.44-25.6l.16-3.52a44.89,44.89,0,0,1-12.47-4.16,49.83,49.83,0,0,1-5.28-2.87,22.79,22.79,0,0,0,8.79,1.43,36.27,36.27,0,0,0,8.32-1l.8-.16q.17-27-3.36-29.91h15.68q1.61,12.16,2.08,26.72a47.75,47.75,0,0,1,5.44-.32,29.27,29.27,0,0,1,17.12,5.11,61.69,61.69,0,0,0-14.56,1,43,43,0,0,0-7.84,3.2l-.16,4.64a160.88,160.88,0,0,1-1.44,21.12Q603,586.49,602.33,603Z" transform="translate(-88.43 -207.36)"/><g class="cls-10"><rect class="cls-2" x="485.59" y="301.86" width="54.87" height="113.42"/></g><path class="cls-2" d="M641.12,524.26a8.89,8.89,0,0,1-2.64-6.4,9.07,9.07,0,0,1,2.64-6.56,9.08,9.08,0,0,1,13,0,9.07,9.07,0,0,1,2.64,6.56,8.89,8.89,0,0,1-2.64,6.4,9.08,9.08,0,0,1-13,0Zm-2.64,81.9q0,13.76,2.72,16.16h15.36Q653,620.07,653,605.2q0-17.6,4.32-46.39,1.92-18.87-18.08-20.48,4.15,2.73,4.16,13.6a67,67,0,0,1-.48,8Q638.48,589.36,638.48,606.16Z" transform="translate(-88.43 -207.36)"/><g class="cls-11"><rect class="cls-2" x="550.05" y="330.97" width="20.16" height="83.98"/><rect class="cls-2" x="550.05" y="301.22" width="18.24" height="18.4"/></g><path class="cls-2" d="M681.35,613.84q-13.76-11.36-13.75-32.15,0-19.52,12-32.32,12.79-13.59,34.4-13.59,12.79,0,23.67,9.59,13.59,11.85,13.6,32.16T736.7,611.12Q723.91,623,708.38,623,692.71,623,681.35,613.84Zm46.55-7.52q9.44-10.71,9.44-29,0-14.08-7.44-24t-17.52-9.92a27.94,27.94,0,0,0-20.63,8.8q-10.08,10.56-10.08,29.59,0,14.56,7.68,24.16t20.32,9.6Q719.9,615.6,727.9,606.32Z" transform="translate(-88.43 -207.36)"/><g class="cls-12"><rect class="cls-2" x="593.24" y="336.09" width="55.67" height="72.15"/><rect class="cls-2" x="579.16" y="328.42" width="83.66" height="87.18"/></g><path class="cls-2" d="M845.32,622.32H831.4q-4.32-4-3.52-22.4l2.88-32.63q1.92-21.12-22.56-21.12-10.55,0-19.67,8.48t-10.4,19.2h.16a260.4,260.4,0,0,0-2.56,31.83q0,14.4,3.68,16.64H763.89q-2.55-2.4-2.56-16.16a261.44,261.44,0,0,1,2.32-30.95q2.33-18.8,2.32-22.48,0-11.19-4-14.24h15.68q3.36,2.57,2.72,16.48,10.88-19.2,32.31-19.19,13.76,0,21.76,6.39,9.27,7.37,9.28,22.4a34.56,34.56,0,0,1-.32,4.48q-1.44,11.84-1.92,23.52Q840.52,617.68,845.32,622.32Z" transform="translate(-88.43 -207.36)"/><g class="cls-13"><rect class="cls-2" x="672.9" y="328.42" width="83.98" height="86.54"/></g><path class="cls-2" d="M914.1,601.36Q913,612.57,901.94,619q-10.07,5.6-23.51,5.12c-3.42-.32-5.92-.64-7.52-1q-17.76-3.84-17.76-17a17.87,17.87,0,0,1,1.12-6.24q0,14.08,22.24,16.64c1.28.11,2.45.16,3.52.16,5.54,0,10.08-1.36,13.59-4.08a13.77,13.77,0,0,0,5.76-10.16q.64-7.83-10.55-15.19l-21.12-13.12q-10.4-7.84-10.56-16.64-.31-10.39,9.6-16.16A41.5,41.5,0,0,1,892,537.21q19.5,2.73,19.51,14.08a10,10,0,0,1-.48,3.2Q907.7,542,886,543.13q-15,.81-16,10.24-.48,6.55,6.88,12.48,4.32,3.36,15.51,9t14.4,8.48Q915.07,590.64,914.1,601.36Z" transform="translate(-88.43 -207.36)"/><g class="cls-14"><rect class="cls-2" x="764.72" y="329.38" width="61.59" height="87.66"/></g><path class="cls-2" d="M111.29,658.19V211.54s23.85,3.68,65.11,0,59.3,8.31,77.87,24.93,27.87,39.85,27.87,69.69q0,42.3-26.23,69.48t-66.82,27.18q-18,0-39.79-8V636.57a21.62,21.62,0,0,1-21.62,21.62ZM175.6,246.28H149.3v88.41a35.92,35.92,0,0,0,35.52,36.05h.37q26.1,0,42.72-18.19t16.62-46.8q0-18.39-7.85-32.49a47.56,47.56,0,0,0-21.41-20.54Q201.71,246.29,175.6,246.28Z" transform="translate(-88.43 -207.36)"/><path class="cls-2" d="M464,355.62V392.4q-28,10.43-54.77,10.42-44.14,0-70.4-26.15t-26.26-70.1q0-44.34,25.54-71.53t67.24-27.18a112.46,112.46,0,0,1,26.06,2.76q11.54,2.76,28.5,10.32v39.65q-28.2-18-52.31-18-25.14,0-41.29,17.68t-16.14,45.06q0,28.82,17.47,45.78t47.11,17Q436.24,368.08,464,355.62Z" transform="translate(-88.43 -207.36)"/><path class="cls-15" d="M497.13,386.07V346a169,169,0,0,0,32.19,17.88q16.44,6.86,27.69,6.85,11.64,0,20-5.72t8.37-13.7A18.46,18.46,0,0,0,580,337.73q-5.41-5.4-23.4-15.63-36-20-47.11-34.23t-11.13-31q0-21.66,16.85-35.36t43.43-13.69q27.6,0,56.61,15.53v36.79q-33.11-20-54.15-20-10.85,0-17.48,4.6T537,256.93q0,6.54,6,12.48t21.14,14.3l13.29,7.56q47,26.57,47,58.84,0,23.1-18.09,37.9t-46.49,14.81A113.6,113.6,0,0,1,530,399.25Q516.95,395.68,497.13,386.07Z" transform="translate(-88.43 -207.36)"/></svg>