<svg id="Layer_1" data-name="Layer 1" xmlns="http://www.w3.org/2000/svg" xmlns:xlink="http://www.w3.org/1999/xlink" viewBox="0 0 826.31 534.19"><defs><style>.cls-1{fill:none;}.cls-2{fill:#2591aa;}.cls-3{fill:#ce2757;}.cls-4{fill:#231f20;}.cls-5{clip-path:url(#clip-path);}.cls-6{fill:#fff;}.cls-7{clip-path:url(#clip-path-2);}.cls-8{clip-path:url(#clip-path-3);}.cls-9{clip-path:url(#clip-path-4);}.cls-10{fill:#fdfdfd;}.cls-11{fill:#fcfcfc;}.cls-12{fill:#fafafb;}.cls-13{fill:#f9f9fa;}.cls-14{fill:#f8f8f9;}.cls-15{fill:#f7f7f8;}.cls-16{fill:#f6f6f7;}.cls-17{fill:#f5f5f6;}.cls-18{fill:#f4f5f5;}.cls-19{fill:#f3f4f4;}.cls-20{fill:#f2f3f3;}.cls-21{fill:#f2f2f3;}.cls-22{fill:#f1f1f2;}.cls-23{fill:#f0f0f1;}.cls-24{fill:#eff0f0;}.cls-25{fill:#eeefef;}.cls-26{fill:#edeeef;}.cls-27{fill:#ededee;}.cls-28{fill:#ececed;}.cls-29{fill:#ebecec;}.cls-30{fill:#eaebec;}.cls-31{fill:#e9eaeb;}.cls-32{fill:#e8e9ea;}.cls-33{fill:#e7e8e9;}.cls-34{fill:#e7e7e8;}.cls-35{fill:#e6e7e8;}.cls-36{fill:#e5e6e7;}.cls-37{fill:#e4e5e6;}.cls-38{fill:#e3e4e5;}.cls-39{fill:#e2e3e4;}.cls-40{fill:#e1e2e4;}.cls-41{fill:#e1e2e3;}.cls-42{fill:#e0e1e2;}.cls-43{fill:#dfe0e1;}.cls-44{fill:#dedfe0;}.cls-45{fill:#dddee0;}.cls-46{fill:#dcdedf;}.cls-47{fill:#dcddde;}.cls-48{fill:#dbdcdd;}.cls-49{fill:#dadbdd;}.cls-50{fill:#d9dadc;}.cls-51{fill:#d8dadb;}.cls-52{fill:#d7d9da;}.cls-53{fill:#d7d8d9;}.cls-54{fill:#d6d7d9;}.cls-55{fill:#d5d6d8;}.cls-56{fill:#d4d6d7;}.cls-57{fill:#d3d5d6;}.cls-58{fill:#d2d4d5;}.cls-59{fill:#d2d3d5;}.cls-60{fill:#d1d2d4;}.cls-61{fill:#d0d1d3;}.cls-62{fill:#cfd1d2;}.cls-63{fill:#ced0d2;}.cls-64{fill:#cdcfd1;}.cls-65{fill:#cdced0;}.cls-66{fill:#cccdcf;}.cls-67{fill:#cbcdce;}.cls-68{fill:#caccce;}.cls-69{fill:#c9cbcd;}.cls-70{fill:#c8cacc;}.cls-71{fill:#c8c9cb;}.cls-72{fill:#c7c8ca;}.cls-73{fill:#c6c8ca;}.cls-74{fill:#c5c7c9;}.cls-75{fill:#c4c6c8;}.cls-76{fill:#c3c5c7;}.cls-77{fill:#c2c4c6;}.cls-78{fill:#c2c3c6;}.cls-79{fill:#c1c3c5;}.cls-80{fill:#c0c2c4;}.cls-81{fill:#bfc1c3;}.cls-82{fill:#bec0c2;}.cls-83{fill:#bdbfc2;}.cls-84{fill:#bdbfc1;}.cls-85{fill:#bcbec0;}.cls-86{fill:#bbbdbf;}.cls-87{fill:#babcbe;}.cls-88{fill:#b9bbbd;}.cls-89{fill:#b8babd;}.cls-90{fill:#b8babc;}.cls-91{fill:#b7b9bb;}.cls-92{fill:#b6b8ba;}.cls-93{fill:#b5b7b9;}.cls-94{fill:#b4b6b9;}.cls-95{fill:#b3b5b8;}.cls-96{fill:#b3b5b7;}.cls-97{fill:#b2b4b6;}.cls-98{fill:#b1b3b5;}.cls-99{fill:#b0b2b5;}.cls-100{fill:#afb1b4;}.cls-101{fill:#aeb1b3;}.cls-102{fill:#aeb0b2;}.cls-103{fill:#adafb1;}.cls-104{fill:#acaeb1;}.cls-105{fill:#abadb0;}.cls-106{fill:#aaadaf;}.cls-107{fill:#aaacae;}.cls-108{fill:#a9abad;}.cls-109{fill:#a8aaad;}.cls-110{fill:#a7a9ac;}.cls-111{fill:#a6a9ab;}.cls-112{fill:#a6a8aa;}.cls-113{fill:#a5a7a9;}.cls-114{fill:#a4a6a9;}.cls-115{fill:#a3a5a8;}.cls-116{fill:#a2a5a7;}.cls-117{fill:#a2a4a6;}.cls-118{fill:#a1a3a6;}.cls-119{fill:#a0a2a5;}.cls-120{fill:#9fa1a4;}.cls-121{fill:#9ea1a3;}.cls-122{fill:#9ea0a2;}.cls-123{fill:#9d9fa2;}.cls-124{fill:#9c9ea1;}.cls-125{fill:#9b9da0;}.cls-126{fill:#9b9d9f;}.cls-127{fill:#9a9c9e;}.cls-128{fill:#999b9e;}.cls-129{fill:#989a9d;}.cls-130{fill:#979a9c;}.cls-131{fill:#97999b;}.cls-132{fill:#96989b;}.cls-133{fill:#95979a;}.cls-134{fill:#949699;}.cls-135{fill:#949698;}.cls-136{fill:#939598;}.cls-137{fill:#929497;}.cls-138{fill:#919396;}.cls-139{fill:#919395;}.cls-140{fill:#909295;}.cls-141{fill:#8f9194;}.cls-142{fill:#8e9093;}.cls-143{fill:#8d9092;}.cls-144{fill:#8d8f91;}.cls-145{fill:#8c8e91;}.cls-146{fill:#8b8d90;}.cls-147{fill:#8a8c8f;}.cls-148{fill:#8a8c8e;}.cls-149{fill:#898b8e;}.cls-150{fill:#888a8d;}.cls-151{fill:#88898c;}.cls-152{fill:#87898b;}.cls-153{fill:#86888b;}.cls-154{fill:#85878a;}.cls-155{fill:#858689;}.cls-156{fill:#848688;}.cls-157{fill:#838588;}.cls-158{fill:#828487;}.cls-159{fill:#828386;}.cls-160{fill:#818385;}.cls-161{fill:#808284;}.cls-162{fill:#7f8184;}.cls-163{fill:#7f8083;}.cls-164{fill:#7e8082;}.cls-165{fill:#7d7f81;}.cls-166{fill:#7c7e81;}.cls-167{fill:#7c7d80;}.cls-168{fill:#7b7d7f;}.cls-169{fill:#7a7c7e;}.cls-170{fill:#797b7e;}.cls-171{fill:#797a7d;}.cls-172{fill:#787a7c;}.cls-173{fill:#77797b;}.cls-174{fill:#76787b;}.cls-175{fill:#76777a;}.cls-176{fill:#757679;}.cls-177{fill:#747678;}.cls-178{fill:#737577;}.cls-179{fill:#737477;}.cls-180{fill:#727376;}.cls-181{fill:#717375;}.cls-182{fill:#707274;}.cls-183{fill:#6f7173;}.cls-184{fill:#6f7073;}.cls-185{fill:#6e6f72;}.cls-186{fill:#6d6f71;}.cls-187{fill:#6c6e70;}.cls-188{fill:#6c6d6f;}.cls-189{fill:#6b6c6f;}.cls-190{fill:#6a6b6e;}.cls-191{fill:#696a6d;}.cls-192{fill:#686a6c;}.cls-193{fill:#68696b;}.cls-194{fill:#67686a;}.cls-195{fill:#666769;}.cls-196{fill:#656669;}.cls-197{fill:#646568;}.cls-198{fill:#636567;}.cls-199{fill:#636466;}.cls-200{fill:#626365;}.cls-201{fill:#616264;}.cls-202{fill:#606163;}.cls-203{fill:#5f6063;}.cls-204{fill:#5e5f62;}.cls-205{fill:#5e5f61;}.cls-206{fill:#5d5e60;}.cls-207{fill:#5c5d5f;}.cls-208{fill:#5b5c5e;}.cls-209{fill:#5a5b5d;}.cls-210{fill:#595a5c;}.cls-211{fill:#58595b;}.cls-212{fill:#58585b;}.cls-213{fill:#57575a;}.cls-214{fill:#565659;}.cls-215{fill:#555658;}.cls-216{fill:#545557;}.cls-217{fill:#535456;}.cls-218{fill:#525355;}.cls-219{fill:#515254;}.cls-220{fill:#505153;}.cls-221{fill:#505052;}.cls-222{fill:#4f4f51;}.cls-223{fill:#4e4e50;}.cls-224{fill:#4d4d4f;}.cls-225{fill:#4c4c4e;}.cls-226{fill:#4b4b4d;}.cls-227{fill:#4a4a4c;}.cls-228{fill:#49494b;}.cls-229{fill:#48484a;}.cls-230{fill:#474749;}.cls-231{fill:#464648;}.cls-232{fill:#454547;}.cls-233{fill:#444446;}.cls-234{fill:#434345;}.cls-235{fill:#424244;}.cls-236{fill:#414143;}.cls-237{fill:#404042;}.cls-238{fill:#3f3f41;}.cls-239{fill:#3e3e3f;}.cls-240{fill:#3d3d3e;}.cls-241{fill:#3c3b3d;}.cls-242{fill:#3b3a3c;}.cls-243{fill:#3a393b;}.cls-244{fill:#393839;}.cls-245{fill:#383738;}.cls-246{fill:#373537;}.cls-247{fill:#363436;}.cls-248{fill:#343334;}.cls-249{fill:#333233;}.cls-250{fill:#323032;}.cls-251{fill:#312f30;}.cls-252{fill:#302e2f;}.cls-253{fill:#2e2c2d;}.cls-254{fill:#2d2b2c;}.cls-255{fill:#2c292a;}.cls-256{fill:#2b2829;}.cls-257{fill:#292728;}.cls-258{fill:#282526;}.cls-259{fill:#272425;}.cls-260{fill:#262223;}.cls-261{fill:#242122;}.cls-262{clip-path:url(#clip-path-5);}.cls-263{clip-path:url(#clip-path-6);}.cls-264{clip-path:url(#clip-path-7);}.cls-265{clip-path:url(#clip-path-8);}.cls-266{clip-path:url(#clip-path-9);}.cls-267{fill:url(#linear-gradient);}.cls-268{fill:url(#linear-gradient-2);}.cls-269{stroke:#231f20;stroke-miterlimit:10;fill:url(#linear-gradient-3);}</style><clipPath id="clip-path" transform="translate(-88.43 -207.36)"><path class="cls-1" d="M327.19,618.32q-9.44,5.76-24,5.76a33.37,33.37,0,0,1-6.08-.48q-18.09-3-30.4-14.72-14.88-14.24-15.84-38.07-1.11-23.52,11-40.23t35.84-22.32a43.7,43.7,0,0,1,9.75-1,50.08,50.08,0,0,1,20.8,4.32q11.52,6.24,13.6,18.4a37.23,37.23,0,0,0-14.24-11.36A32.86,32.86,0,0,0,312,515.14l-3.52.16q-19.83.65-31.19,17.44Q267.2,548.09,267.84,570q.8,23,13.44,35.67,10.71,10.89,25.11,10.4l3.36-.16a40.82,40.82,0,0,0,16.64-4.64,47.27,47.27,0,0,0,13.12-9.6A26.8,26.8,0,0,1,327.19,618.32Z"/></clipPath><clipPath id="clip-path-2" transform="translate(-88.43 -207.36)"><path class="cls-1" d="M399,543.77a13.51,13.51,0,0,0-6.88-1.75q-5.76,0-11.2,4.63-12.17,10.41-14.88,32.16l.16-1.6a257.65,257.65,0,0,0-1.92,28q0,14.88,3.52,17.12H352.47q-2.73-2.4-2.72-16.16a261.44,261.44,0,0,1,2.32-30.95q2.31-18.8,2.32-22.32,0-11.19-3.84-14.24h16q2.08,1.29,2.4,8.8a46,46,0,0,1,5.6-5.6,18.92,18.92,0,0,1,11.68-4,19.79,19.79,0,0,1,4.32.47Q397.41,540.1,399,543.77Z"/></clipPath><clipPath id="clip-path-3" transform="translate(-88.43 -207.36)"><path class="cls-1" d="M464.6,612.48q6.4-2.64,9.44-6.64A32.73,32.73,0,0,1,462.36,618a34.4,34.4,0,0,1-18.24,5q-14.72,0-24-9.28-10.87-11-10.88-32.31,0-17.45,9.44-30.4,10.71-14.87,28.79-15,15-.33,23,5.91,7,5.45,7,13.76,0,10.25-8.8,16a145.53,145.53,0,0,1-18.4,9.2q-12.32,5.36-16.31,8.07-7.05,4.65-7,10.24a13.17,13.17,0,0,0,1.44,5.6,17.2,17.2,0,0,0,9.44,9c3.19,1.28,7.73,1.81,13.59,1.6A36.46,36.46,0,0,0,464.6,612.48Zm-41.27-30a30.58,30.58,0,0,0,.8,7.19,65.7,65.7,0,0,1,21.75-14.39q18.89-7.53,18.88-20.48a10.74,10.74,0,0,0-3.44-8.08,12.57,12.57,0,0,0-9-3.28,24.07,24.07,0,0,0-12.63,3.68,28.45,28.45,0,0,0-10.72,11.68A50.29,50.29,0,0,0,423.33,582.49Z"/></clipPath><clipPath id="clip-path-4" transform="translate(-88.43 -207.36)"><path class="cls-1" d="M505.71,622.8a21.42,21.42,0,0,1-12.64-6.72,18.7,18.7,0,0,1-5.28-13.28q0-8.16,6.39-16,5.58-6.87,20.58-11.35l23.61-7q11.18-4.47,11.17-12.48,0-6.72-7-10.24A28.6,28.6,0,0,0,529.61,543a62.39,62.39,0,0,0-31.1,8.48q1.75-2.55,9-8.48a48.5,48.5,0,0,1,23.83-6.87q19.2-1,27.36,5.59,6.55,5.13,6.08,15.2-.16,1.61-2.4,20.32a224.06,224.06,0,0,0-2.08,26.39q0,13.92,3.84,18.72h-15q-2.88-4.16-2.4-22.56.48-14.07,2.4-30.07-4,4.15-17.27,8.64-15.84,5.43-20.64,8.16Q501.07,592.4,501.07,601q0,7.05,4.24,11t11.12,3.92q10.56,0,21.75-8.32c.53-.43,1.39-1,2.56-1.76q-12.32,17.45-30.07,17.44A26.93,26.93,0,0,1,505.71,622.8Z"/></clipPath><clipPath id="clip-path-5" transform="translate(-88.43 -207.36)"><path class="cls-1" d="M602.33,603q-.48,14.88,9.12,14.88a16.84,16.84,0,0,0,6.88-1.76,21.25,21.25,0,0,1-15.52,6.56q-5.91,0-10.24-5.12-5.12-5.76-4.8-14.72.65-13.59,2.4-27.83,1-7.85,1.44-25.6l.16-3.52a44.89,44.89,0,0,1-12.47-4.16,49.83,49.83,0,0,1-5.28-2.87,22.79,22.79,0,0,0,8.79,1.43,36.27,36.27,0,0,0,8.32-1l.8-.16q.17-27-3.36-29.91h15.68q1.61,12.16,2.08,26.72a47.75,47.75,0,0,1,5.44-.32,29.27,29.27,0,0,1,17.12,5.11,61.69,61.69,0,0,0-14.56,1,43,43,0,0,0-7.84,3.2l-.16,4.64a160.88,160.88,0,0,1-1.44,21.12Q603,586.49,602.33,603Z"/></clipPath><clipPath id="clip-path-6" transform="translate(-88.43 -207.36)"><path class="cls-1" d="M641.12,524.26a8.89,8.89,0,0,1-2.64-6.4,9.07,9.07,0,0,1,2.64-6.56,9.08,9.08,0,0,1,13,0,9.07,9.07,0,0,1,2.64,6.56,8.89,8.89,0,0,1-2.64,6.4,9.08,9.08,0,0,1-13,0Zm-2.64,81.9q0,13.76,2.72,16.16h15.36Q653,620.07,653,605.2q0-17.6,4.32-46.39,1.92-18.87-18.08-20.48,4.15,2.73,4.16,13.6a67,67,0,0,1-.48,8Q638.48,589.36,638.48,606.16Z"/></clipPath><clipPath id="clip-path-7" transform="translate(-88.43 -207.36)"><path class="cls-1" d="M681.35,613.84q-13.76-11.36-13.75-32.15,0-19.52,12-32.32,12.79-13.59,34.4-13.59,12.79,0,23.67,9.59,13.59,11.85,13.6,32.16T736.7,611.12Q723.91,623,708.38,623,692.71,623,681.35,613.84Zm46.55-7.52q9.44-10.71,9.44-29,0-14.08-7.44-24t-17.52-9.92a27.94,27.94,0,0,0-20.63,8.8q-10.08,10.56-10.08,29.59,0,14.56,7.68,24.16t20.32,9.6Q719.9,615.6,727.9,606.32Z"/></clipPath><clipPath id="clip-path-8" transform="translate(-88.43 -207.36)"><path class="cls-1" d="M845.32,622.32H831.4q-4.32-4-3.52-22.4l2.88-32.63q1.92-21.12-22.56-21.12-10.55,0-19.67,8.48t-10.4,19.2h.16a260.4,260.4,0,0,0-2.56,31.83q0,14.4,3.68,16.64H763.89q-2.55-2.4-2.56-16.16a261.44,261.44,0,0,1,2.32-30.95q2.33-18.8,2.32-22.48,0-11.19-4-14.24h15.68q3.36,2.57,2.72,16.48,10.88-19.2,32.31-19.19,13.76,0,21.76,6.39,9.27,7.37,9.28,22.4a34.56,34.56,0,0,1-.32,4.48q-1.44,11.84-1.92,23.52Q840.52,617.68,845.32,622.32Z"/></clipPath><clipPath id="clip-path-9" transform="translate(-88.43 -207.36)"><path class="cls-1" d="M914.1,601.36Q913,612.57,901.94,619q-10.07,5.6-23.51,5.12c-3.42-.32-5.92-.64-7.52-1q-17.76-3.84-17.76-17a17.87,17.87,0,0,1,1.12-6.24q0,14.08,22.24,16.64c1.28.11,2.45.16,3.52.16,5.54,0,10.08-1.36,13.59-4.08a13.77,13.77,0,0,0,5.76-10.16q.64-7.83-10.55-15.19l-21.12-13.12q-10.4-7.84-10.56-16.64-.31-10.39,9.6-16.16A41.5,41.5,0,0,1,892,537.21q19.5,2.73,19.51,14.08a10,10,0,0,1-.48,3.2Q907.7,542,886,543.13q-15,.81-16,10.24-.48,6.55,6.88,12.48,4.32,3.36,15.51,9t14.4,8.48Q915.07,590.64,914.1,601.36Z"/></clipPath><linearGradient id="linear-gradient" x1="196.71" y1="358.12" x2="196.71" y2="347.06" gradientUnits="userSpaceOnUse"><stop offset="0" stop-color="#fff"/><stop offset="1" stop-color="#231f20"/></linearGradient><linearGradient id="linear-gradient-2" x1="388.3" y1="359.97" x2="388.3" y2="348.45" xlink:href="#linear-gradient"/><linearGradient id="linear-gradient-3" x1="474.1" y1="352.8" x2="494.59" y2="341.47" gradientUnits="userSpaceOnUse"><stop offset="0" stop-color="#fff"/><stop offset="0.03" stop-color="#ebebeb"/><stop offset="0.1" stop-color="#bdbcbc"/><stop offset="0.18" stop-color="#939292"/><stop offset="0.26" stop-color="#716e6f"/><stop offset="0.34" stop-color="#545152"/><stop offset="0.43" stop-color="#3e3b3c"/><stop offset="0.53" stop-color="#2f2b2c"/><stop offset="0.64" stop-color="#262223"/><stop offset="0.8" stop-color="#231f20"/></linearGradient></defs><title>MyLogo</title><path class="cls-2" d="M6.13,114.48H390.07a6.13,6.13,0,0,1,6.13,6.13V482.89a45.81,45.81,0,0,1-45.81,45.81H19a19,19,0,0,1-19-19V120.61a6.13,6.13,0,0,1,6.13-6.13Z"/><path class="cls-3" d="M41.74,138h396.2a0,0,0,0,1,0,0V494.51a39.68,39.68,0,0,1-39.68,39.68H54.63a12.89,12.89,0,0,1-12.89-12.89V138A0,0,0,0,1,41.74,138Z"/><path class="cls-4" d="M23.51,138h396.2a0,0,0,0,1,0,0V494.51A39.68,39.68,0,0,1,380,534.19H36.4a12.89,12.89,0,0,1-12.89-12.89V138A0,0,0,0,1,23.51,138Z"/><g class="cls-5"><rect class="cls-6" x="161.71" y="299.94" width="91.77" height="116.78"/></g><g class="cls-7"><rect class="cls-6" x="261.31" y="330.5" width="49.27" height="84.46"/></g><g class="cls-8"><rect class="cls-6" x="334.9" y="336.09" width="41.43" height="46.23"/><rect class="cls-6" x="320.82" y="328.36" width="68.31" height="87.23"/></g><g class="cls-9"><rect class="cls-6" x="399.36" y="328.09" width="19.32" height="87.82"/><rect class="cls-6" x="418.68" y="328.09" height="87.82"/><rect class="cls-10" x="418.68" y="328.09" height="87.82"/><rect class="cls-11" x="418.69" y="328.09" height="87.82"/><rect class="cls-12" x="418.69" y="328.09" height="87.82"/><rect class="cls-13" x="418.7" y="328.09" height="87.82"/><rect class="cls-14" x="418.7" y="328.09" height="87.82"/><rect class="cls-15" x="418.71" y="328.09" height="87.82"/><rect class="cls-16" x="418.71" y="328.09" height="87.82"/><rect class="cls-17" x="418.71" y="328.09" height="87.82"/><rect class="cls-18" x="418.72" y="328.09" height="87.82"/><rect class="cls-19" x="418.72" y="328.09" height="87.82"/><rect class="cls-20" x="418.73" y="328.09" height="87.82"/><rect class="cls-21" x="418.73" y="328.09" height="87.82"/><rect class="cls-22" x="418.74" y="328.09" height="87.82"/><rect class="cls-23" x="418.74" y="328.09" height="87.82"/><rect class="cls-24" x="418.74" y="328.09" height="87.82"/><rect class="cls-25" x="418.75" y="328.09" height="87.82"/><rect class="cls-26" x="418.75" y="328.09" height="87.82"/><rect class="cls-27" x="418.76" y="328.09" height="87.82"/><rect class="cls-28" x="418.76" y="328.09" height="87.82"/><rect class="cls-29" x="418.77" y="328.09" height="87.82"/><rect class="cls-30" x="418.77" y="328.09" height="87.82"/><rect class="cls-31" x="418.78" y="328.09" height="87.82"/><rect class="cls-32" x="418.78" y="328.09" height="87.82"/><rect class="cls-33" x="418.78" y="328.09" height="87.82"/><rect class="cls-34" x="418.79" y="328.09" height="87.82"/><rect class="cls-35" x="418.79" y="328.09" height="87.82"/><rect class="cls-36" x="418.8" y="328.09" height="87.82"/><rect class="cls-37" x="418.8" y="328.09" height="87.82"/><rect class="cls-38" x="418.81" y="328.09" height="87.82"/><rect class="cls-39" x="418.81" y="328.09" height="87.82"/><rect class="cls-40" x="418.81" y="328.09" height="87.82"/><rect class="cls-41" x="418.82" y="328.09" height="87.82"/><rect class="cls-42" x="418.82" y="328.09" height="87.82"/><rect class="cls-43" x="418.83" y="328.09" height="87.82"/><rect class="cls-44" x="418.83" y="328.09" height="87.82"/><rect class="cls-45" x="418.84" y="328.09" height="87.82"/><rect class="cls-46" x="418.84" y="328.09" height="87.82"/><rect class="cls-47" x="418.85" y="328.09" height="87.82"/><rect class="cls-48" x="418.85" y="328.09" height="87.82"/><rect class="cls-49" x="418.85" y="328.09" height="87.82"/><rect class="cls-50" x="418.86" y="328.09" height="87.82"/><rect class="cls-51" x="418.86" y="328.09" height="87.82"/><rect class="cls-52" x="418.87" y="328.09" height="87.82"/><rect class="cls-53" x="418.87" y="328.09" height="87.82"/><rect class="cls-54" x="418.88" y="328.09" height="87.82"/><rect class="cls-55" x="418.88" y="328.09" height="87.82"/><rect class="cls-56" x="418.89" y="328.09" height="87.82"/><rect class="cls-57" x="418.89" y="328.09" height="87.82"/><rect class="cls-58" x="418.89" y="328.09" height="87.82"/><rect class="cls-59" x="418.9" y="328.09" height="87.82"/><rect class="cls-60" x="418.9" y="328.09" height="87.82"/><rect class="cls-61" x="418.91" y="328.09" height="87.82"/><rect class="cls-62" x="418.91" y="328.09" height="87.82"/><rect class="cls-63" x="418.92" y="328.09" height="87.82"/><rect class="cls-64" x="418.92" y="328.09" height="87.82"/><rect class="cls-65" x="418.92" y="328.09" height="87.82"/><rect class="cls-66" x="418.93" y="328.09" height="87.82"/><rect class="cls-67" x="418.93" y="328.09" height="87.82"/><rect class="cls-68" x="418.94" y="328.09" height="87.82"/><rect class="cls-69" x="418.94" y="328.09" height="87.82"/><rect class="cls-70" x="418.95" y="328.09" height="87.82"/><rect class="cls-71" x="418.95" y="328.09" height="87.82"/><rect class="cls-72" x="418.96" y="328.09" height="87.82"/><rect class="cls-73" x="418.96" y="328.09" height="87.82"/><rect class="cls-73" x="418.96" y="328.09" height="87.82"/><rect class="cls-74" x="418.97" y="328.09" height="87.82"/><rect class="cls-75" x="418.97" y="328.09" height="87.82"/><rect class="cls-76" x="418.98" y="328.09" height="87.82"/><rect class="cls-77" x="418.98" y="328.09" height="87.82"/><rect class="cls-78" x="418.99" y="328.09" height="87.82"/><rect class="cls-79" x="418.99" y="328.09" height="87.82"/><rect class="cls-80" x="419" y="328.09" height="87.82"/><rect class="cls-81" x="419" y="328.09" height="87.82"/><rect class="cls-82" x="419" y="328.09" height="87.82"/><rect class="cls-83" x="419.01" y="328.09" height="87.82"/><rect class="cls-84" x="419.01" y="328.09" height="87.82"/><rect class="cls-85" x="419.02" y="328.09" height="87.82"/><rect class="cls-86" x="419.02" y="328.09" height="87.82"/><rect class="cls-87" x="419.03" y="328.09" height="87.82"/><rect class="cls-88" x="419.03" y="328.09" height="87.82"/><rect class="cls-89" x="419.03" y="328.09" height="87.82"/><rect class="cls-90" x="419.04" y="328.09" height="87.82"/><rect class="cls-91" x="419.04" y="328.09" height="87.82"/><rect class="cls-92" x="419.05" y="328.09" height="87.82"/><rect class="cls-93" x="419.05" y="328.09" height="87.82"/><rect class="cls-94" x="419.06" y="328.09" height="87.82"/><rect class="cls-95" x="419.06" y="328.09" height="87.82"/><rect class="cls-96" x="419.07" y="328.09" height="87.82"/><rect class="cls-97" x="419.07" y="328.09" height="87.82"/><rect class="cls-98" x="419.07" y="328.09" height="87.82"/><rect class="cls-99" x="419.08" y="328.09" height="87.82"/><rect class="cls-100" x="419.08" y="328.09" height="87.82"/><rect class="cls-101" x="419.09" y="328.09" height="87.82"/><rect class="cls-102" x="419.09" y="328.09" height="87.82"/><rect class="cls-103" x="419.1" y="328.09" height="87.82"/><rect class="cls-104" x="419.1" y="328.09" height="87.82"/><rect class="cls-105" x="419.11" y="328.09" height="87.82"/><rect class="cls-106" x="419.11" y="328.09" height="87.82"/><rect class="cls-107" x="419.11" y="328.09" height="87.82"/><rect class="cls-108" x="419.12" y="328.09" height="87.82"/><rect class="cls-109" x="419.12" y="328.09" height="87.82"/><rect class="cls-110" x="419.13" y="328.09" height="87.82"/><rect class="cls-111" x="419.13" y="328.09" height="87.82"/><rect class="cls-112" x="419.14" y="328.09" height="87.82"/><rect class="cls-113" x="419.14" y="328.09" height="87.82"/><rect class="cls-114" x="419.15" y="328.09" height="87.82"/><rect class="cls-115" x="419.15" y="328.09" height="87.82"/><rect class="cls-116" x="419.15" y="328.09" height="87.82"/><rect class="cls-117" x="419.16" y="328.09" height="87.82"/><rect class="cls-118" x="419.16" y="328.09" height="87.82"/><rect class="cls-119" x="419.17" y="328.09" height="87.82"/><rect class="cls-120" x="419.17" y="328.09" height="87.82"/><rect class="cls-121" x="419.18" y="328.09" height="87.82"/><rect class="cls-122" x="419.18" y="328.09" height="87.82"/><rect class="cls-123" x="419.19" y="328.09" height="87.82"/><rect class="cls-124" x="419.19" y="328.09" height="87.82"/><rect class="cls-125" x="419.19" y="328.09" height="87.82"/><rect class="cls-126" x="419.2" y="328.09" height="87.82"/><rect class="cls-127" x="419.2" y="328.09" height="87.82"/><rect class="cls-128" x="419.21" y="328.09" height="87.82"/><rect class="cls-129" x="419.21" y="328.09" height="87.82"/><rect class="cls-130" x="419.22" y="328.09" height="87.82"/><rect class="cls-131" x="419.22" y="328.09" height="87.82"/><rect class="cls-132" x="419.23" y="328.09" height="87.82"/><rect class="cls-133" x="419.23" y="328.09" height="87.82"/><rect class="cls-134" x="419.23" y="328.09" height="87.82"/><rect class="cls-135" x="419.24" y="328.09" height="87.82"/><rect class="cls-136" x="419.24" y="328.09" height="87.82"/><rect class="cls-137" x="419.25" y="328.09" height="87.82"/><rect class="cls-138" x="419.25" y="328.09" height="87.82"/><rect class="cls-139" x="419.26" y="328.09" height="87.82"/><rect class="cls-140" x="419.26" y="328.09" height="87.82"/><rect class="cls-141" x="419.27" y="328.09" height="87.82"/><rect class="cls-142" x="419.27" y="328.09" height="87.82"/><rect class="cls-143" x="419.27" y="328.09" height="87.82"/><rect class="cls-144" x="419.28" y="328.09" height="87.82"/><rect class="cls-145" x="419.28" y="328.09" height="87.82"/><rect class="cls-146" x="419.29" y="328.09" height="87.82"/><rect class="cls-147" x="419.29" y="328.09" height="87.82"/><rect class="cls-148" x="419.3" y="328.09" height="87.82"/><rect class="cls-149" x="419.3" y="328.09" height="87.82"/><rect class="cls-150" x="419.31" y="328.09" height="87.82"/><rect class="cls-151" x="419.31" y="328.09" height="87.82"/><rect class="cls-152" x="419.31" y="328.09" height="87.82"/><rect class="cls-153" x="419.32" y="328.09" height="87.82"/><rect class="cls-154" x="419.32" y="328.09" height="87.82"/><rect class="cls-155" x="419.33" y="328.09" height="87.82"/><rect class="cls-156" x="419.33" y="328.09" height="87.82"/><rect class="cls-157" x="419.34" y="328.09" height="87.82"/><rect class="cls-158" x="419.34" y="328.09" height="87.82"/><rect class="cls-159" x="419.34" y="328.09" height="87.82"/><rect class="cls-160" x="419.35" y="328.09" height="87.82"/><rect class="cls-161" x="419.35" y="328.09" height="87.82"/><rect class="cls-162" x="419.36" y="328.09" height="87.82"/><rect class="cls-163" x="419.36" y="328.09" height="87.82"/><rect class="cls-164" x="419.37" y="328.09" height="87.82"/><rect class="cls-165" x="419.37" y="328.09" height="87.82"/><rect class="cls-166" x="419.38" y="328.09" height="87.82"/><rect class="cls-167" x="419.38" y="328.09" height="87.82"/><rect class="cls-168" x="419.38" y="328.09" height="87.82"/><rect class="cls-169" x="419.39" y="328.09" height="87.82"/><rect class="cls-170" x="419.39" y="328.09" height="87.82"/><rect class="cls-171" x="419.4" y="328.09" height="87.82"/><rect class="cls-172" x="419.4" y="328.09" height="87.82"/><rect class="cls-173" x="419.41" y="328.09" height="87.82"/><rect class="cls-174" x="419.41" y="328.09" height="87.82"/><rect class="cls-175" x="419.42" y="328.09" height="87.82"/><rect class="cls-176" x="419.42" y="328.09" height="87.82"/><rect class="cls-177" x="419.42" y="328.09" height="87.82"/><rect class="cls-178" x="419.43" y="328.09" height="87.82"/><rect class="cls-179" x="419.43" y="328.09" height="87.82"/><rect class="cls-180" x="419.44" y="328.09" height="87.82"/><rect class="cls-181" x="419.44" y="328.09" height="87.82"/><rect class="cls-182" x="419.45" y="328.09" height="87.82"/><rect class="cls-183" x="419.45" y="328.09" height="87.82"/><rect class="cls-184" x="419.46" y="328.09" height="87.82"/><rect class="cls-185" x="419.46" y="328.09" height="87.82"/><rect class="cls-186" x="419.46" y="328.09" height="87.82"/><rect class="cls-187" x="419.47" y="328.09" height="87.82"/><rect class="cls-188" x="419.47" y="328.09" height="87.82"/><rect class="cls-189" x="419.48" y="328.09" height="87.82"/><rect class="cls-190" x="419.48" y="328.09" height="87.82"/><rect class="cls-191" x="419.49" y="328.09" height="87.82"/><rect class="cls-192" x="419.49" y="328.09" height="87.82"/><rect class="cls-193" x="419.5" y="328.09" height="87.82"/><rect class="cls-194" x="419.5" y="328.09" height="87.82"/><rect class="cls-195" x="419.5" y="328.09" height="87.82"/><rect class="cls-196" x="419.51" y="328.09" height="87.82"/><rect class="cls-197" x="419.51" y="328.09" height="87.82"/><rect class="cls-198" x="419.52" y="328.09" height="87.82"/><rect class="cls-199" x="419.52" y="328.09" height="87.82"/><rect class="cls-200" x="419.53" y="328.09" height="87.82"/><rect class="cls-201" x="419.53" y="328.09" height="87.82"/><rect class="cls-202" x="419.54" y="328.09" height="87.82"/><rect class="cls-203" x="419.54" y="328.09" height="87.82"/><rect class="cls-204" x="419.54" y="328.09" height="87.82"/><rect class="cls-205" x="419.55" y="328.09" height="87.82"/><rect class="cls-206" x="419.55" y="328.09" height="87.82"/><rect class="cls-207" x="419.56" y="328.09" height="87.82"/><rect class="cls-208" x="419.56" y="328.09" height="87.82"/><rect class="cls-209" x="419.57" y="328.09" height="87.82"/><rect class="cls-210" x="419.57" y="328.09" height="87.82"/><rect class="cls-211" x="419.58" y="328.09" height="87.82"/><rect class="cls-212" x="419.58" y="328.09" height="87.82"/><rect class="cls-213" x="419.58" y="328.09" height="87.82"/><rect class="cls-214" x="419.59" y="328.09" height="87.82"/><rect class="cls-215" x="419.59" y="328.09" height="87.82"/><rect class="cls-216" x="419.6" y="328.09" height="87.82"/><rect class="cls-217" x="419.6" y="328.09" height="87.82"/><rect class="cls-218" x="419.61" y="328.09" height="87.82"/><rect class="cls-219" x="419.61" y="328.09" height="87.82"/><rect class="cls-220" x="419.62" y="328.09" height="87.82"/><rect class="cls-221" x="419.62" y="328.09" height="87.82"/><rect class="cls-222" x="419.62" y="328.09" height="87.82"/><rect class="cls-223" x="419.63" y="328.09" height="87.82"/><rect class="cls-224" x="419.63" y="328.09" height="87.82"/><rect class="cls-225" x="419.64" y="328.09" height="87.82"/><rect class="cls-226" x="419.64" y="328.09" height="87.82"/><rect class="cls-227" x="419.65" y="328.09" height="87.82"/><rect class="cls-228" x="419.65" y="328.09" height="87.82"/><rect class="cls-229" x="419.65" y="328.09" height="87.82"/><rect class="cls-230" x="419.66" y="328.09" height="87.82"/><rect class="cls-231" x="419.66" y="328.09" height="87.82"/><rect class="cls-232" x="419.67" y="328.09" height="87.82"/><rect class="cls-233" x="419.67" y="328.09" height="87.82"/><rect class="cls-234" x="419.68" y="328.09" height="87.82"/><rect class="cls-235" x="419.68" y="328.09" height="87.82"/><rect class="cls-236" x="419.69" y="328.09" height="87.82"/><rect class="cls-237" x="419.69" y="328.09" height="87.82"/><rect class="cls-238" x="419.69" y="328.09" height="87.82"/><rect class="cls-239" x="419.7" y="328.09" height="87.82"/><rect class="cls-240" x="419.7" y="328.09" height="87.82"/><rect class="cls-241" x="419.71" y="328.09" height="87.82"/><rect class="cls-242" x="419.71" y="328.09" height="87.82"/><rect class="cls-243" x="419.72" y="328.09" height="87.82"/><rect class="cls-244" x="419.72" y="328.09" height="87.82"/><rect class="cls-245" x="419.73" y="328.09" height="87.82"/><rect class="cls-246" x="419.73" y="328.09" height="87.82"/><rect class="cls-247" x="419.73" y="328.09" height="87.82"/><rect class="cls-248" x="419.74" y="328.09" height="87.82"/><rect class="cls-249" x="419.74" y="328.09" height="87.82"/><rect class="cls-250" x="419.75" y="328.09" height="87.82"/><rect class="cls-251" x="419.75" y="328.09" height="87.82"/><rect class="cls-252" x="419.76" y="328.09" height="87.82"/><rect class="cls-253" x="419.76" y="328.09" height="87.82"/><rect class="cls-254" x="419.77" y="328.09" height="87.82"/><rect class="cls-255" x="419.77" y="328.09" height="87.82"/><rect class="cls-256" x="419.77" y="328.09" height="87.82"/><rect class="cls-257" x="419.78" y="328.09" height="87.82"/><rect class="cls-258" x="419.78" y="328.09" height="87.82"/><rect class="cls-259" x="419.79" y="328.09" height="87.82"/><rect class="cls-260" x="419.79" y="328.09" height="87.82"/><rect class="cls-261" x="419.8" y="328.09" height="87.82"/><rect class="cls-4" x="419.8" y="328.09" height="87.82"/><rect class="cls-4" x="419.81" y="328.09" width="56.82" height="87.82"/></g><g class="cls-262"><rect class="cls-4" x="485.59" y="301.86" width="54.87" height="113.42"/></g><g class="cls-263"><rect class="cls-4" x="550.05" y="330.97" width="20.16" height="83.98"/><rect class="cls-4" x="550.05" y="301.22" width="18.24" height="18.4"/></g><g class="cls-264"><rect class="cls-4" x="593.24" y="336.09" width="55.67" height="72.15"/><rect class="cls-4" x="579.16" y="328.42" width="83.66" height="87.18"/></g><g class="cls-265"><rect class="cls-4" x="672.9" y="328.42" width="83.98" height="86.54"/></g><g class="cls-266"><rect class="cls-4" x="764.72" y="329.38" width="61.59" height="87.66"/></g><path class="cls-267" d="M111.29,658.19V211.54s23.85,3.68,65.11,0,59.3,8.31,77.87,24.93,27.87,39.85,27.87,69.69q0,42.3-26.23,69.48t-66.82,27.18q-18,0-39.79-8V636.57a21.62,21.62,0,0,1-21.62,21.62ZM175.6,246.28H149.3v88.41a35.92,35.92,0,0,0,35.52,36.05h.37q26.1,0,42.72-18.19t16.62-46.8q0-18.39-7.85-32.49a47.56,47.56,0,0,0-21.41-20.54Q201.71,246.29,175.6,246.28Z" transform="translate(-88.43 -207.36)"/><path class="cls-268" d="M464,355.62V392.4q-28,10.43-54.77,10.42-44.14,0-70.4-26.15t-26.26-70.1q0-44.34,25.54-71.53t67.24-27.18a112.46,112.46,0,0,1,26.06,2.76q11.54,2.76,28.5,10.32v39.65q-28.2-18-52.31-18-25.14,0-41.29,17.68t-16.14,45.06q0,28.82,17.47,45.78t47.11,17Q436.24,368.08,464,355.62Z" transform="translate(-88.43 -207.36)"/><path class="cls-269" d="M497.13,386.07V346a169,169,0,0,0,32.19,17.88q16.44,6.86,27.69,6.85,11.64,0,20-5.72t8.37-13.7A18.46,18.46,0,0,0,580,337.73q-5.41-5.4-23.4-15.63-36-20-47.11-34.23t-11.13-31q0-21.66,16.85-35.36t43.43-13.69q27.6,0,56.61,15.53v36.79q-33.11-20-54.15-20-10.85,0-17.48,4.6T537,256.93q0,6.54,6,12.48t21.14,14.3l13.29,7.56q47,26.57,47,58.84,0,23.1-18.09,37.9t-46.49,14.81A113.6,113.6,0,0,1,530,399.25Q516.95,395.68,497.13,386.07Z" transform="translate(-88.43 -207.36)"/></svg>